# File created by Blade
# Date/Time:  Tue Apr 07 20:22:14 2015
# Frame Rate: 120.000 fps
#------------------------------------------------------
:FULLY-SPECIFIED
:DEGREES
1629
root 4.034394 32.879542 -10.045084 19.414967 1.061293 -4.738733
Spine -11.641776 -5.275569 -0.087271
Head 14.284606 -7.068486 9.032681
LeftShoulder -17.955173 46.645854 11.978175
LeftArm 47.700685 -6.038734 -91.258493
LeftForeArm -3.575755 0.000000 24.809496
LeftHand 11.330771 -0.000000 11.148534
LeftHandThumb1 -26.253704 0.000000 33.147579
RightShoulder -7.699480 -10.616862 -13.681689
RightArm 6.468736 4.767656 88.450523
RightForeArm 11.971765 -0.000000 16.916371
RightHand 7.295303 -0.000000 1.622633
RightHandThumb1 -24.326973 -0.000000 -32.862282
LeftUpLeg -21.713725 -4.325987 1.372091
LeftLeg 6.608423 -0.000000 -0.000000
LeftFoot -7.241931 9.483247 -12.169082
LeftToeBase -6.491710 -0.000000 0.000000
RightUpLeg -33.967636 -4.298157 0.508900
RightLeg 33.582241 -0.000000 -0.000000
RightFoot -4.785725 -0.941463 12.264006
RightToeBase -11.483834 -0.000000 0.000000
1630
root 4.044446 32.881563 -10.039713 19.443066 1.055800 -4.788308
Spine -11.678460 -5.255499 -0.061441
Head 14.324141 -7.152999 9.059589
LeftShoulder -17.957785 46.649510 11.968715
LeftArm 47.667966 -6.051346 -91.261402
LeftForeArm -3.588592 -0.000000 24.856082
LeftHand 11.366256 -0.000000 11.180532
LeftHandThumb1 -26.253704 0.000000 33.147579
RightShoulder -7.734453 -10.592404 -13.684167
RightArm 6.477705 4.765170 88.527086
RightForeArm 12.095801 -0.000000 16.932103
RightHand 7.400994 0.000000 1.623196
RightHandThumb1 -24.326973 -0.000000 -32.862282
LeftUpLeg -21.692045 -4.295401 1.398895
LeftLeg 6.531494 -0.000000 -0.000000
LeftFoot -7.237083 9.463109 -12.163862
LeftToeBase -6.430605 -0.000000 0.000000
RightUpLeg -33.920025 -4.368566 0.561184
RightLeg 33.453058 -0.000000 -0.000000
RightFoot -4.766503 -0.860558 12.332359
RightToeBase -11.454668 -0.000000 0.000000
1631
root 4.055042 32.883153 -10.034518 19.475498 1.068552 -4.831767
Spine -11.722932 -5.262878 -0.031548
Head 14.371076 -7.211443 9.095538
LeftShoulder -17.948962 46.644579 11.977936
LeftArm 47.612579 -6.077540 -91.308203
LeftForeArm -3.604528 0.000000 24.911515
LeftHand 11.374601 -0.000000 11.250447
LeftHandThumb1 -26.253704 0.000000 33.147579
RightShoulder -7.769986 -10.582953 -13.679076
RightArm 6.486765 4.725172 88.586963
RightForeArm 12.179047 0.000000 17.028359
RightHand 7.364179 -0.000000 1.545279
RightHandThumb1 -24.326973 -0.000000 -32.862282
LeftUpLeg -21.693600 -4.255253 1.418712
LeftLeg 6.489115 -0.000000 -0.000000
LeftFoot -7.227135 9.411314 -12.178497
LeftToeBase -6.479320 -0.000000 0.000000
RightUpLeg -33.859308 -4.422384 0.605455
RightLeg 33.298413 -0.000000 -0.000000
RightFoot -4.766815 -0.820056 12.370989
RightToeBase -11.456912 -0.000000 0.000000
1632
root 4.065169 32.884840 -10.029647 19.507020 1.101115 -4.878652
Spine -11.761157 -5.302060 0.017075
Head 14.404134 -7.269361 9.127637
LeftShoulder -17.963967 46.649761 11.961954
LeftArm 47.567772 -6.113281 -91.369076
LeftForeArm -3.619941 0.000000 24.966928
LeftHand 11.365901 -0.000000 11.301781
LeftHandThumb1 -26.253704 0.000000 33.147579
RightShoulder -7.805395 -10.554430 -13.672040
RightArm 6.482257 4.733240 88.647328
RightForeArm 12.152934 -0.000000 17.150705
RightHand 7.364230 -0.000000 1.438326
RightHandThumb1 -24.326973 -0.000000 -32.862282
LeftUpLeg -21.687094 -4.256285 1.449008
LeftLeg 6.427054 -0.000000 -0.000000
LeftFoot -7.229587 9.409619 -12.151875
LeftToeBase -6.407277 -0.000000 0.000000
RightUpLeg -33.772357 -4.447404 0.637348
RightLeg 33.105285 -0.000000 -0.000000
RightFoot -4.798998 -0.783156 12.394196
RightToeBase -11.364453 -0.000000 0.000000
1633
root 4.078255 32.885880 -10.025242 19.546498 1.136828 -4.894974
Spine -11.809340 -5.363795 0.042833
Head 14.441705 -7.297987 9.160535
LeftShoulder -17.982448 46.669034 11.937261
LeftArm 47.507272 -6.117903 -91.383940
LeftForeArm -3.734883 -0.000000 25.042951
LeftHand 11.343010 -0.000000 11.284200
LeftHandThumb1 -26.253704 0.000000 33.147579
RightShoulder -7.838308 -10.570972 -13.646352
RightArm 6.518721 4.722749 88.675681
RightForeArm 12.249749 -0.000000 17.312809
RightHand 7.431995 0.000000 0.874209
RightHandThumb1 -24.326973 -0.000000 -32.862282
LeftUpLeg -21.711607 -4.249545 1.442055
LeftLeg 6.409431 -0.000000 -0.000000
LeftFoot -7.226541 9.380227 -12.134401
LeftToeBase -6.352373 -0.000000 0.000000
RightUpLeg -33.683076 -4.452186 0.637254
RightLeg 32.895180 -0.000000 -0.000000
RightFoot -4.854051 -0.819391 12.460738
RightToeBase -11.340680 -0.000000 0.000000
